<svg width="1300" height="1300" viewBox="0 0 1300 1300" fill="none" xmlns="http://www.w3.org/2000/svg">
<path d="M650 1300C290.71 1300 0 1008.86 0 650C0 290.71 291.141 0 650 0C1009.29 0 1300 291.141 1300 650C1300.43 1009.29 1009.29 1300 650 1300Z" fill="#F7C0B5"/>
<mask id="mask0_32_1422" style="mask-type:alpha" maskUnits="userSpaceOnUse" x="0" y="0" width="1300" height="1300">
<path d="M650 1300C290.71 1300 0 1008.86 0 650C0 290.71 291.141 0 650 0C1009.29 0 1300 291.141 1300 650C1300.43 1009.29 1009.29 1300 650 1300Z" fill="#F7C0B5"/>
</mask>
<g mask="url(#mask0_32_1422)">
<path d="M1014 1197.33C1010.97 1199.5 1007.5 1201.66 1004.47 1203.83C1001 1206 997.966 1208.16 994.5 1209.9C991.466 1211.63 988.866 1213.36 985.833 1215.1C985.4 1215.53 984.966 1215.53 984.533 1215.96C974.566 1222.03 964.166 1227.66 953.766 1232.86C950.733 1234.6 947.266 1236.33 944.233 1237.63C944.233 1237.63 943.8 1238.06 943.366 1238.06C939.9 1239.8 936.433 1241.53 932.966 1243.26C926.033 1246.73 918.666 1249.76 911.733 1252.8C908.266 1254.53 904.366 1255.83 900.9 1257.13C897.433 1258.43 893.533 1260.16 890.067 1261.46C886.6 1262.76 882.7 1264.5 879.233 1265.8C879.233 1265.8 879.233 1265.8 878.8 1265.8C875.333 1267.1 871.433 1268.4 867.966 1269.7C860.167 1272.3 851.933 1274.9 844.133 1277.5C841.533 1278.36 838.5 1279.23 835.9 1280.1C827.667 1282.7 819.433 1284.86 811.2 1286.6C808.167 1287.46 805.133 1287.9 801.667 1288.76C793.867 1290.5 785.633 1292.23 777.833 1293.96C776.1 1294.4 774.8 1294.4 773.067 1294.83C770.467 1295.26 767.433 1295.7 764.833 1296.13C760.933 1296.56 757.467 1297.43 753.567 1297.86C751.833 1298.3 750.1 1298.3 748.367 1298.73C746.2 1299.16 743.6 1299.6 741 1299.6C734.067 1300.46 726.7 1301.33 719.767 1302.2C717.6 1302.63 715 1302.63 712.833 1303.06H712.4C709.367 1303.5 706.333 1303.5 703.3 1303.93C700.267 1304.36 697.233 1304.36 694.2 1304.36C692.467 1304.36 690.3 1304.8 688.567 1304.8C685.1 1304.8 682.067 1305.23 679.033 1305.23C674.7 1305.23 670.8 1305.66 666.467 1305.66C662.133 1305.66 658.233 1305.66 653.9 1305.66C650.867 1305.66 647.833 1305.66 644.8 1305.66C462.367 1303.06 297.7 1225.5 180.7 1102.43C180.7 1102.43 180.7 1102 180.267 1102C193.7 1075.56 243.534 1027.9 295.534 988.464C361.4 938.631 454.567 907.864 454.567 907.864C454.567 907.864 515.667 897.898 742.3 945.131C915.2 981.531 988.866 1129.3 1014 1197.33Z" fill="#F7D3B5"/>
<path d="M790.401 1065.16C781.301 1109.8 722.367 1136.23 623.134 1096.36C501.367 1046.96 454.568 907.864 454.568 907.864C448.068 808.197 432.901 722.831 432.901 722.831C573.734 710.697 740.134 875.364 740.134 875.364L759.201 956.831C760.934 963.764 764.401 969.831 769.601 974.164C778.701 989.764 796.467 1036.56 790.401 1065.16Z" fill="#F7D3B5"/>
<path d="M769.6 974.597C686.834 970.264 625.734 958.131 560.3 840.698C615.767 889.664 681.2 908.297 750.1 916.964L759.2 956.831C760.934 964.197 764.4 970.264 769.6 974.597Z" fill="#EFBDA5"/>
<path d="M940.767 452.431C948.567 488.831 952.467 518.298 931.233 615.364C910 712.431 950.733 809.498 848.467 898.331C779.567 958.131 659.1 969.398 562.9 903.964C530.4 881.864 500.5 851.098 476.234 810.798C457.167 779.164 435.067 749.264 410.367 721.964C376.134 684.698 334.967 609.731 355.334 477.131C388.267 261.331 601.9 236.631 728 260.465C854.1 284.298 919.533 356.231 940.767 452.431Z" fill="#F7D3B5"/>
<path d="M526.066 621.864C526.066 621.864 512.633 556.864 449.366 564.664C394.766 571.598 375.7 702.464 499.633 738.864" fill="#F7D3B5"/>
<path d="M495.734 679.498C495.734 679.498 480.134 669.531 481.867 652.198C484.467 631.831 481.867 619.265 472.334 615.365C448.5 605.398 443.734 633.131 444.6 636.598" stroke="#423232" stroke-width="13.4786" stroke-miterlimit="10" stroke-linecap="round" stroke-linejoin="round"/>
<path d="M826.366 721.531C826.366 721.531 842.833 722.398 858.433 703.764C867.1 693.364 874.466 680.364 869.7 676.464C864.933 672.131 786.5 684.264 781.3 694.664C776.1 705.064 806.433 721.531 826.366 721.531Z" fill="#EFBDA5"/>
<path d="M839.367 575.931C839.367 575.931 840.234 617.098 866.667 663.031C878.367 683.398 860.6 716.765 822.034 722.398" stroke="#423232" stroke-width="13.4786" stroke-miterlimit="10" stroke-linecap="round" stroke-linejoin="round"/>
<path opacity="0.42" d="M604.499 743.631C629.149 743.631 649.132 727.14 649.132 706.798C649.132 686.455 629.149 669.964 604.499 669.964C579.849 669.964 559.866 686.455 559.866 706.798C559.866 727.14 579.849 743.631 604.499 743.631Z" fill="#ED938A"/>
<path opacity="0.42" d="M924.299 670.831C922.999 695.098 923.433 718.931 921.699 742.764C902.633 738.431 888.766 724.131 888.766 707.231C888.766 689.031 903.933 674.298 924.299 670.831Z" fill="#ED938A"/>
<path d="M905.625 1028.73C905.625 1028.73 838.458 965.899 772.158 950.733C772.158 950.733 828.058 1041.73 663.825 1024.83C536.425 1011.83 453.658 905.233 453.658 905.233C453.658 905.233 370.025 928.633 302.425 980.199C302.425 980.199 311.525 1113.23 463.625 1179.1C615.725 1244.97 827.625 1212.47 877.891 1170C928.158 1127.53 918.191 1042.6 905.625 1028.73Z" fill="#444444"/>
<path d="M265.157 1009.23C265.157 1009.23 137.757 1055.6 91.8238 1187.77C45.8905 1319.93 90.5238 1516.67 90.5238 1516.67H1104.52C1104.52 1516.67 1112.76 1288.3 1042.56 1161.33C1026.09 1131.87 980.59 1084.2 948.09 1069.03C948.09 1069.03 960.224 1180.83 768.257 1190.8C576.29 1200.77 345.324 1139.67 339.69 1104.13C334.49 1067.73 265.157 1009.23 265.157 1009.23Z" fill="white"/>
<path d="M994.023 1524.47C721.89 1650.13 273.823 1536.6 273.823 1536.6C273.823 1536.6 264.723 1426.1 297.657 1227.2C298.957 1218.1 300.257 1209 301.123 1200.77C310.657 1110.63 288.557 1048.67 265.157 1009.67C265.157 999.7 275.557 992.766 287.257 982.8C292.023 978.9 298.523 978.466 301.99 981.066C308.057 989.733 313.69 998.4 318.457 1007.5C366.99 1097.2 462.323 1144.87 563.723 1154.83C701.957 1168.7 759.59 1166.53 828.49 1151.37C894.79 1136.63 924.69 1097.63 906.057 1032.63C905.623 1031.77 905.623 1030.47 905.19 1029.17C916.89 1028.3 944.19 1050.83 953.29 1084.2C962.823 1125.37 970.19 1171.73 975.823 1218.1C994.457 1369.33 994.023 1524.47 994.023 1524.47Z" fill="#444444"/>
<path d="M366.123 940.333C366.123 940.333 450.19 1109.77 595.79 1202.5C609.223 1211.17 626.99 1207.7 636.523 1195.13L716.256 1091.13L810.723 1175.63C821.556 1185.6 839.323 1179.97 842.79 1165.67C851.023 1129.27 857.523 1061.67 826.756 971.532" stroke="white" stroke-width="13.4786" stroke-miterlimit="10" stroke-linecap="round" stroke-linejoin="round"/>
<path d="M737.057 1464.67C748.324 1335.1 716.257 1091.57 716.257 1091.57" stroke="white" stroke-width="13.4786" stroke-miterlimit="10" stroke-linecap="round" stroke-linejoin="round"/>
<path d="M783.856 1234.13C792.472 1234.13 799.456 1227.15 799.456 1218.53C799.456 1209.92 792.472 1202.93 783.856 1202.93C775.241 1202.93 768.256 1209.92 768.256 1218.53C768.256 1227.15 775.241 1234.13 783.856 1234.13Z" fill="white"/>
<path d="M790.789 1312.13C799.405 1312.13 806.389 1305.15 806.389 1296.53C806.389 1287.92 799.405 1280.93 790.789 1280.93C782.173 1280.93 775.189 1287.92 775.189 1296.53C775.189 1305.15 782.173 1312.13 790.789 1312.13Z" fill="white"/>
<path d="M698.924 1017.03C698.924 1017.03 632.624 976.733 605.324 983.666C577.59 990.599 587.124 1090.27 604.89 1106.3C622.657 1122.33 698.49 1071.2 703.257 1066.87C708.024 1062.53 705.857 1023.97 698.924 1017.03Z" fill="white"/>
<path d="M724.058 1017.47C724.058 1017.47 750.058 976.733 776.491 971.533C802.491 966.333 814.625 1076.4 802.925 1086.8C791.225 1096.77 736.625 1075.1 730.558 1068.17C724.058 1061.67 720.591 1030.9 724.058 1017.47Z" fill="white"/>
<path d="M751.791 1052.13C753.091 1028.3 736.191 1007.93 713.657 1005.77C691.124 1003.6 671.624 1020.93 669.457 1044.77C667.724 1069.03 684.624 1090.27 707.591 1092.43C730.991 1094.17 750.491 1076.4 751.791 1052.13Z" fill="#444444"/>
<path d="M669.457 1044.77C669.89 1061.67 678.99 1076.83 692.857 1084.2C706.29 1091.57 723.623 1089.4 734.89 1079C746.157 1069.03 750.49 1052.13 746.59 1037.4C742.69 1022.67 730.557 1009.23 713.657 1005.77C717.99 1005.77 721.89 1006.63 726.223 1007.93C730.123 1009.23 734.023 1011.4 737.49 1014C744.423 1019.2 750.057 1027 752.657 1035.23C755.69 1043.9 756.123 1053 753.957 1062.1C752.657 1066.43 750.923 1070.77 748.757 1074.67C746.59 1078.57 743.557 1082.03 740.09 1085.5C733.157 1091.57 724.49 1095.9 715.39 1096.33C706.29 1097.2 696.757 1095.03 689.39 1089.83C681.59 1085.07 675.957 1077.7 672.49 1069.9C669.023 1062.1 668.157 1053 669.457 1044.77Z" fill="white"/>
<path d="M685.655 622.173C675.255 621.74 667.455 613.073 668.322 602.673L668.755 590.54C669.188 580.14 677.855 572.34 688.255 573.206C698.655 573.64 706.455 582.306 705.588 592.706L705.155 604.84C704.722 614.806 696.055 622.606 685.655 622.173Z" fill="#423232"/>
<path d="M868.086 628.673C858.553 628.24 851.186 620.006 851.619 610.473L852.053 599.206C852.486 589.673 860.719 582.306 870.253 582.74C879.786 583.173 887.153 591.406 886.719 600.94L886.286 612.206C885.853 621.74 877.619 629.106 868.086 628.673Z" fill="#423232"/>
<path d="M727.687 597.04C727.687 597.04 716.42 581.006 696.92 577.973C680.887 575.373 663.121 583.173 660.521 592.273" stroke="#423232" stroke-width="13.4786" stroke-miterlimit="10" stroke-linecap="round" stroke-linejoin="round"/>
<path d="M855.521 600.939C855.521 600.939 855.522 587.073 875.455 587.073C891.921 587.073 898.855 602.239 898.855 602.239" stroke="#423232" stroke-width="13.4786" stroke-miterlimit="10" stroke-linecap="round" stroke-linejoin="round"/>
<path d="M752.388 521.639C761.921 520.772 766.688 509.506 761.488 500.839C758.455 496.506 754.555 492.606 748.921 490.439C732.455 485.239 678.721 496.939 655.321 523.806C634.521 548.506 709.055 525.539 752.388 521.639Z" fill="#423232"/>
<path d="M866.788 528.573C859.422 526.406 857.255 515.573 863.322 508.64C866.355 505.173 870.688 502.14 875.455 501.273C890.188 498.673 923.988 512.106 933.522 537.673C942.188 559.773 901.888 537.24 866.788 528.573Z" fill="#423232"/>
<path d="M797.606 771.72C771.997 786.996 726.619 770.373 705.502 744.763" stroke="#423232" stroke-width="13.4786" stroke-miterlimit="10" stroke-linecap="round" stroke-linejoin="round"/>
<path d="M1052.43 935.089C1028.17 881.355 1009.53 888.722 1026.43 840.189C1043.33 792.089 1021.67 757.855 977.032 712.355C934.566 669.022 930.232 621.789 931.532 614.855C927.632 633.055 925.899 651.689 925.032 669.889C923.732 694.155 924.166 717.989 922.432 741.822C918.966 795.122 906.399 847.555 849.199 896.955C824.066 918.622 791.999 934.222 756.466 941.589C746.933 970.622 761.233 991.422 792.433 994.889C823.632 998.355 836.632 1045.16 907.266 1067.26C1013 1101.49 1076.7 988.822 1052.43 935.089Z" fill="#423232"/>
<path d="M854.834 410.756C863.934 415.522 871.734 411.189 876.501 401.656C926.768 393.856 938.468 494.389 940.201 500.456C941.934 506.956 942.801 525.156 939.334 574.989C937.168 602.722 1098.37 405.989 951.034 322.789C961.868 306.756 954.068 227.022 863.501 207.522C831.001 200.589 788.534 230.922 735.234 219.222C526.801 172.856 310.568 217.056 327.468 492.222C331.368 552.456 335.268 617.456 233.001 660.789C114.268 711.056 120.335 842.356 203.968 869.222C238.634 880.489 124.235 958.489 190.968 1027.82C225.634 1064.22 287.601 990.556 350.434 1030.42C445.334 1090.66 492.568 1063.36 511.201 1039.52C549.334 990.989 502.101 893.489 502.101 893.489C502.101 893.489 520.734 863.589 526.801 847.556C556.268 768.689 486.068 733.156 486.068 733.156C377.734 691.556 397.234 570.656 450.101 563.722C505.568 556.789 522.901 606.189 525.934 618.322C525.934 618.322 574.901 685.922 669.368 531.656C762.968 377.389 814.101 388.656 854.834 410.756Z" fill="#423232"/>
<path d="M477.159 636.126C477.159 636.126 442.492 630.926 445.092 679.459C446.392 704.159 446.392 717.593 445.959 724.526C445.525 729.293 448.559 733.626 452.892 735.359C458.092 737.526 463.725 735.359 466.325 730.159C470.225 723.226 474.559 713.693 474.559 705.893C474.559 692.893 488.425 681.193 488.425 681.193C488.425 681.193 475.859 670.359 477.159 636.126Z" fill="white"/>
<path d="M582.025 1471.59C578.559 1467.69 442.492 1234.99 462.859 1147.46C476.726 1087.23 458.526 1017.89 442.492 956.792C435.992 931.659 429.926 908.259 426.459 887.459C420.392 851.492 424.726 817.259 439.459 785.626C455.492 750.092 452.892 719.326 452.892 718.892L461.559 718.026C461.559 719.326 464.159 751.826 447.259 789.092C433.392 818.992 429.492 851.926 435.126 886.159C438.592 906.526 444.659 929.926 451.159 955.059C467.626 1017.03 485.826 1087.66 471.526 1150.06C452.459 1233.26 588.092 1465.96 588.959 1466.83L582.025 1471.59Z" fill="white"/>
<path d="M446.391 704.592C446.825 714.126 446.391 720.625 446.391 724.525C445.958 729.292 448.991 733.625 453.325 735.359C458.525 737.525 464.158 735.359 466.758 730.159C470.658 723.225 474.991 713.692 474.991 705.892C474.991 705.459 474.991 704.592 474.991 704.159C465.891 707.625 455.491 710.226 446.391 704.592Z" fill="#E5E5E5"/>
<path d="M854.157 992.759C851.124 1012.69 850.691 1044.33 849.824 1081.16C848.524 1152.23 806.491 1429.13 786.124 1472.89L778.324 1469.43C797.824 1426.96 839.858 1151.36 841.157 1081.16C842.024 1044.33 842.457 1012.26 845.491 991.459C851.991 947.692 847.224 914.759 844.624 900.892C845.924 899.592 847.224 898.725 848.524 897.425C849.824 896.559 850.691 895.259 851.991 894.392C854.591 905.659 861.957 941.625 854.157 992.759Z" fill="white"/>
</g>
</svg>
