<svg width="1300" height="1300" viewBox="0 0 1300 1300" fill="none" xmlns="http://www.w3.org/2000/svg">
<path d="M650 1300C290.71 1300 0 1008.86 0 650C0 290.71 291.141 0 650 0C1009.29 0 1300 291.141 1300 650C1300.43 1009.29 1009.29 1300 650 1300Z" fill="#F4DA92"/>
<mask id="mask0_32_1442" style="mask-type:alpha" maskUnits="userSpaceOnUse" x="0" y="0" width="1301" height="1300">
<path d="M650 1300C290.71 1300 0 1008.86 0 650C0 290.71 291.141 0 650 0C1009.29 0 1300 291.141 1300 650C1300.43 1009.29 1009.29 1300 650 1300Z" fill="#F7C0B5"/>
</mask>
<g mask="url(#mask0_32_1442)">
<path d="M1015.73 1197.33C1012.7 1199.5 1009.23 1201.66 1006.2 1203.83C1002.73 1206 999.698 1208.16 996.231 1209.9C993.198 1211.63 990.598 1213.36 987.564 1215.1C987.131 1215.53 986.698 1215.53 986.265 1215.96C976.298 1222.03 965.898 1227.66 955.498 1232.86C952.465 1234.6 948.998 1236.33 945.965 1237.63C945.965 1237.63 945.531 1238.06 945.098 1238.06C941.631 1239.8 938.165 1241.53 934.698 1243.26C927.765 1246.73 920.398 1249.76 913.465 1252.8C909.998 1254.53 906.098 1255.83 902.631 1257.13C899.165 1258.43 895.265 1260.16 891.798 1261.46C888.331 1262.76 884.431 1264.5 880.965 1265.8C880.965 1265.8 880.965 1265.8 880.531 1265.8C877.064 1267.1 873.165 1268.4 869.698 1269.7C861.898 1272.3 853.665 1274.9 845.864 1277.5C843.265 1278.36 840.231 1279.23 837.631 1280.1C829.398 1282.7 821.165 1284.86 812.931 1286.6C809.898 1287.46 806.864 1287.9 803.398 1288.76C795.598 1290.5 787.364 1292.23 779.564 1293.96C777.831 1294.4 776.531 1294.4 774.798 1294.83C772.198 1295.26 769.165 1295.7 766.564 1296.13C762.665 1296.56 759.198 1297.43 755.298 1297.86C753.565 1298.3 751.831 1298.3 750.098 1298.73C747.931 1299.16 745.331 1299.6 742.731 1299.6C735.798 1300.46 728.431 1301.33 721.498 1302.2C719.331 1302.63 716.731 1302.63 714.565 1303.06H714.131C711.098 1303.5 708.064 1303.5 705.031 1303.93C701.998 1304.36 698.965 1304.36 695.931 1304.36C694.198 1304.36 692.031 1304.8 690.298 1304.8C686.831 1304.8 683.798 1305.23 680.765 1305.23C676.431 1305.23 672.531 1305.66 668.198 1305.66C663.865 1305.66 659.965 1305.66 655.631 1305.66C652.598 1305.66 649.565 1305.66 646.531 1305.66C464.098 1303.06 299.431 1225.5 182.431 1102.43C182.431 1102.43 182.431 1102 181.998 1102C195.431 1075.56 245.265 1027.9 297.265 988.464C363.131 938.631 456.298 907.865 456.298 907.865C456.298 907.865 517.398 897.898 744.031 945.131C916.931 981.531 990.598 1129.3 1015.73 1197.33Z" fill="#FEE4BF"/>
<path d="M792.131 1065.16C783.031 1109.8 724.098 1136.23 624.864 1096.36C503.098 1046.96 456.298 907.865 456.298 907.865C449.798 808.198 434.631 722.831 434.631 722.831C575.465 710.698 741.864 875.365 741.864 875.365L760.931 956.831C762.664 963.764 766.131 969.831 771.331 974.165C780.431 989.764 798.198 1036.56 792.131 1065.16Z" fill="#FEE4BF"/>
<path d="M771.331 974.598C688.564 970.265 627.464 958.131 562.031 840.698C617.498 889.665 682.931 908.298 751.831 916.965L760.931 956.831C762.664 964.198 766.131 970.265 771.331 974.598Z" fill="#EFBDA5"/>
<path d="M942.498 452.431C950.298 488.831 954.198 518.298 932.964 615.365C911.731 712.431 952.464 809.498 850.198 898.331C781.298 958.131 660.831 969.398 564.631 903.965C532.131 881.865 502.231 851.098 477.964 810.798C458.898 779.165 436.798 749.265 412.098 721.965C377.864 684.698 336.698 609.731 357.065 477.131C389.998 261.331 603.631 236.631 729.731 260.465C855.831 284.298 921.264 356.231 942.498 452.431Z" fill="#FEE4BF"/>
<path d="M527.798 621.865C527.798 621.865 514.365 556.865 451.098 564.665C396.498 571.598 377.431 702.465 501.364 738.865" fill="#FEE4BF"/>
<path d="M497.464 679.498C497.464 679.498 481.864 669.531 483.598 652.198C486.198 631.831 483.598 619.265 474.065 615.365C450.231 605.398 445.465 633.131 446.331 636.598" stroke="#423232" stroke-width="13.4786" stroke-miterlimit="10" stroke-linecap="round" stroke-linejoin="round"/>
<path d="M828.098 721.531C828.098 721.531 844.564 722.398 860.164 703.765C868.831 693.365 876.198 680.365 871.431 676.465C866.664 672.131 788.231 684.265 783.031 694.665C777.831 705.065 808.164 721.531 828.098 721.531Z" fill="#EFBDA5"/>
<path d="M841.098 575.931C841.098 575.931 841.964 617.098 868.398 663.031C880.098 683.398 862.331 716.765 823.765 722.398" stroke="#423232" stroke-width="13.4786" stroke-miterlimit="10" stroke-linecap="round" stroke-linejoin="round"/>
<path opacity="0.42" d="M606.231 743.631C630.882 743.631 650.865 727.14 650.865 706.798C650.865 686.455 630.882 669.965 606.231 669.965C581.581 669.965 561.598 686.455 561.598 706.798C561.598 727.14 581.581 743.631 606.231 743.631Z" fill="#F2A5B2"/>
<path opacity="0.42" d="M926.031 670.831C924.731 695.098 925.165 718.931 923.431 742.765C904.365 738.431 890.498 724.131 890.498 707.231C890.498 689.031 905.664 674.298 926.031 670.831Z" fill="#F2A5B2"/>
<path d="M907.837 1029.6C907.837 1029.6 840.67 966.767 774.37 951.6C774.37 951.6 782.17 1063.4 703.303 1055.17C575.903 1041.73 455.87 906.533 455.87 906.533C455.87 906.533 372.237 929.933 304.637 981.5C304.637 981.5 313.737 1114.53 465.837 1180.4C617.937 1246.27 829.837 1213.77 880.103 1171.3C930.37 1128.83 920.403 1043.47 907.837 1029.6Z" fill="white"/>
<path d="M267.37 1010.1C267.37 1010.1 183.303 1056.47 137.37 1188.63C91.4367 1320.8 92.7367 1517.53 92.7367 1517.53H1081.6C1081.6 1517.53 1053.87 1192.97 955.937 1084.63C955.937 1084.63 962.437 1181.7 770.47 1191.67C578.503 1201.63 347.537 1140.53 341.903 1105C336.703 1068.6 267.37 1010.1 267.37 1010.1Z" fill="white"/>
<path d="M996.237 1525.33C724.103 1651 276.037 1537.47 276.037 1537.47C276.037 1537.47 266.937 1426.97 299.87 1228.07C301.17 1218.97 302.47 1209.87 303.337 1201.63C312.87 1111.5 290.77 1049.53 267.37 1010.53C267.37 1000.57 277.77 993.633 289.47 983.667C294.237 979.767 379.603 926.9 383.07 929.5C389.137 938.167 394.77 946.833 399.537 955.933C448.07 1045.63 464.97 1141.83 565.937 1155.7C665.603 1169.57 761.803 1167.4 830.703 1152.23C897.003 1137.5 852.803 1027.43 823.337 973.267C822.037 971.1 822.037 970.233 820.737 969.367C830.703 962.867 946.403 1051.7 955.503 1084.63C974.57 1132.3 979.77 1167.83 985.403 1214.2C1004.04 1366.3 996.237 1525.33 996.237 1525.33Z" fill="#77A0E0"/>
<path d="M401.27 1152.67C416.587 1152.67 429.003 1140.25 429.003 1124.93C429.003 1109.62 416.587 1097.2 401.27 1097.2C385.953 1097.2 373.537 1109.62 373.537 1124.93C373.537 1140.25 385.953 1152.67 401.27 1152.67Z" fill="#647184"/>
<path d="M918.237 1164.37C932.117 1164.37 943.37 1153.11 943.37 1139.23C943.37 1125.35 932.117 1114.1 918.237 1114.1C904.356 1114.1 893.103 1125.35 893.103 1139.23C893.103 1153.11 904.356 1164.37 918.237 1164.37Z" fill="#647184"/>
<path d="M594.97 1203.8C660.837 1207.7 743.17 1209 812.07 1199.03C858.437 1192.53 900.47 1226.77 903.937 1273.13C906.97 1319.07 908.27 1374.97 900.903 1423.93C885.737 1529.67 507.437 1524.47 501.37 1431.3C497.903 1383.2 494.87 1344.2 491.403 1312.13C484.903 1251.9 534.303 1200.33 594.97 1203.8Z" stroke="#647184" stroke-width="13.4786" stroke-miterlimit="10"/>
<path d="M721.07 1054.73C721.07 1054.73 641.77 1150.93 617.503 1143.57C593.237 1136.2 442.437 1056.03 418.603 919.1C418.603 919.1 437.237 888.767 453.703 879.233C453.703 879.233 499.203 959.4 581.537 1007.5C659.97 1053 721.07 1054.73 721.07 1054.73Z" fill="white"/>
<path d="M721.07 1054.73C721.07 1054.73 641.77 1150.93 617.503 1143.57C593.237 1136.2 442.437 1056.03 418.603 919.1" stroke="#D0D6DD" stroke-width="13.4786" stroke-miterlimit="10" stroke-linecap="round" stroke-linejoin="round"/>
<path d="M721.07 1054.73C721.07 1054.73 782.603 1126.67 802.97 1127.53C823.337 1128.4 832.003 1001.87 770.903 937.733C770.903 937.733 761.37 940.333 757.47 941.2C757.037 940.767 787.803 1033.07 721.07 1054.73Z" fill="white"/>
<path d="M721.07 1054.73C721.07 1054.73 782.603 1126.67 802.97 1127.53C823.337 1128.4 832.003 1001.87 770.903 937.733" stroke="#D0D6DD" stroke-width="13.4786" stroke-miterlimit="10" stroke-linecap="round" stroke-linejoin="round"/>
<path d="M715.003 1061.67C715.003 1061.67 702.87 1075.1 707.203 1104.57C711.537 1133.6 710.67 1162.63 710.67 1162.63" stroke="#D0D6DD" stroke-width="13.4786" stroke-miterlimit="10" stroke-linecap="round" stroke-linejoin="round"/>
<path d="M737.103 1126.67C742.608 1126.67 747.07 1122.2 747.07 1116.7C747.07 1111.2 742.608 1106.73 737.103 1106.73C731.599 1106.73 727.137 1111.2 727.137 1116.7C727.137 1122.2 731.599 1126.67 737.103 1126.67Z" fill="#D0D6DD"/>
<path d="M683.943 619.439C673.543 619.006 665.743 610.339 666.61 599.939L667.043 587.806C667.476 577.406 676.143 569.606 686.543 570.472C696.943 570.906 704.743 579.572 703.876 589.972L703.443 602.106C703.01 612.072 694.343 619.872 683.943 619.439Z" fill="#423232"/>
<path d="M866.376 625.939C856.843 625.505 849.476 617.272 849.909 607.739L850.343 596.472C850.776 586.939 859.009 579.572 868.543 580.005C878.076 580.439 885.443 588.672 885.01 598.205L884.576 609.472C884.143 619.005 875.909 626.372 866.376 625.939Z" fill="#423232"/>
<path d="M725.977 594.305C725.977 594.305 714.71 578.272 695.21 575.239C679.177 572.639 661.41 580.439 658.81 589.539" stroke="#423232" stroke-width="13.4786" stroke-miterlimit="10" stroke-linecap="round" stroke-linejoin="round"/>
<path d="M853.81 598.206C853.81 598.206 853.81 584.339 873.743 584.339C890.21 584.339 897.143 599.506 897.143 599.506" stroke="#423232" stroke-width="13.4786" stroke-miterlimit="10" stroke-linecap="round" stroke-linejoin="round"/>
<path d="M743.743 524.539C752.843 527.572 761.943 519.339 760.209 509.372C759.343 504.172 757.176 498.972 752.843 495.072C739.843 483.372 686.109 472.972 653.609 488.139C625.009 502.005 702.143 510.672 743.743 524.539Z" fill="#423232"/>
<path d="M873.308 531.472C865.942 534.072 858.142 526.272 859.442 517.172C859.875 512.406 861.608 507.639 865.075 504.172C875.475 493.772 911.008 485.539 933.542 501.572C953.042 515.006 907.108 518.906 873.308 531.472Z" fill="#423232"/>
<path d="M797.606 771.721C771.997 786.996 726.619 770.373 705.502 744.763" stroke="#423232" stroke-width="13.4786" stroke-miterlimit="10" stroke-linecap="round" stroke-linejoin="round"/>
<path d="M940.302 574.422C952.002 508.555 948.536 482.555 941.602 451.788C939.436 442.255 936.836 433.155 933.802 424.055C910.836 405.855 886.569 394.155 849.736 388.955C750.502 375.522 672.069 384.622 588.436 402.822C536.003 414.088 546.836 595.222 526.469 619.055C523.003 606.922 506.103 557.522 450.636 564.455C398.203 570.955 378.269 692.288 486.603 733.888C485.736 757.722 463.636 801.922 445.869 811.888C445.869 811.888 442.836 780.255 408.169 738.655C373.503 697.055 304.169 589.155 350.969 431.422C397.769 273.688 609.669 191.355 806.836 271.522C840.636 285.388 868.369 304.888 890.469 325.255C942.469 372.922 970.202 442.255 961.969 512.022C959.802 535.422 953.302 557.955 940.302 574.422Z" fill="#423232"/>
<path d="M872.702 377.255C872.702 377.255 744.869 573.122 506.536 512.455C506.536 512.455 460.169 395.889 561.136 351.255C662.536 307.055 848.436 338.255 872.702 377.255Z" fill="#423232"/>
<path d="M859.269 379.855C859.269 379.855 875.736 425.355 908.236 462.189C929.469 486.022 957.202 505.955 991.869 506.822C991.869 506.822 1002.7 388.955 925.569 343.022C848.436 296.655 859.269 379.855 859.269 379.855Z" fill="#423232"/>
<path d="M542.502 304.888C542.502 304.888 402.969 87.7884 280.335 245.088C157.702 402.388 291.602 813.189 217.069 936.689C217.069 936.689 302.435 874.722 324.969 753.388C324.969 753.388 327.569 803.655 312.402 873.855C312.402 873.855 402.969 769.422 402.969 644.188C402.969 518.955 493.535 336.955 542.502 304.888Z" fill="#423232"/>
<path d="M948.102 549.288C963.702 615.588 948.102 730.422 948.102 730.422C948.102 730.422 1138.77 427.522 984.502 312.688C854.502 215.622 574.135 314.422 574.135 314.422C574.135 314.422 837.168 251.155 888.301 372.055C935.101 481.255 940.302 443.555 955.035 508.555C957.202 515.055 945.935 540.188 948.102 549.288Z" fill="#423232"/>
<path d="M550.417 522.264C550.417 522.264 381.85 533.964 328.117 520.097C328.117 520.097 336.784 327.697 398.75 248.397C460.717 169.097 744.984 168.664 840.75 204.197C927.417 236.697 938.684 427.364 938.684 427.364L550.417 522.264Z" fill="#3F3C3C"/>
<path d="M938.684 427.364L566.884 518.364C564.717 468.531 559.517 315.131 585.084 257.064C615.85 187.297 794.817 187.731 869.784 223.264C929.584 281.764 938.684 427.364 938.684 427.364Z" fill="white"/>
<path d="M1022.32 507.531C1022.32 559.964 937.383 536.564 937.383 536.564C941.283 499.731 937.817 479.364 932.617 456.397C930.884 449.464 929.15 442.531 927.417 435.597C955.15 432.564 975.95 440.364 990.683 451.631C1012.78 468.964 1022.32 494.964 1022.32 507.531Z" fill="#BAAEA6"/>
<path d="M756.684 341.564C785.163 341.564 808.25 318.477 808.25 289.997C808.25 261.518 785.163 238.431 756.684 238.431C728.204 238.431 705.117 261.518 705.117 289.997C705.117 318.477 728.204 341.564 756.684 341.564Z" fill="white"/>
<path d="M808.25 289.997C808.25 313.831 792.217 333.331 770.55 339.831C748.884 333.764 732.85 313.831 732.85 289.997C732.85 266.164 748.884 246.231 770.55 240.164C792.217 246.664 808.25 266.597 808.25 289.997Z" fill="#6BD5E1"/>
<path d="M835.984 289.997C835.984 318.597 813.017 341.564 784.417 341.564C783.117 341.564 781.817 341.564 780.517 341.564C779.65 341.564 778.35 341.564 777.484 341.131C776.617 341.131 775.317 340.697 774.017 340.697C772.717 340.264 771.85 340.264 770.55 339.831C792.217 333.764 808.25 313.831 808.25 289.997C808.25 266.164 792.217 246.664 770.55 240.164C771.417 239.731 772.717 239.731 774.017 239.297C774.884 239.297 775.75 238.864 776.617 238.864C777.05 238.864 777.484 238.864 778.35 238.864C779.217 238.864 779.65 238.864 780.517 238.864C781.817 238.864 783.117 238.864 784.85 238.864C813.017 238.431 835.984 261.397 835.984 289.997Z" fill="#FFD98E"/>
<path d="M756.684 242.764C782.684 242.764 803.917 263.997 803.917 289.997C803.917 315.997 782.684 337.231 756.684 337.231C730.684 337.231 709.45 315.997 709.45 289.997C709.45 263.997 730.684 242.764 756.684 242.764ZM756.684 238.431C728.084 238.431 705.117 261.397 705.117 289.997C705.117 318.597 728.084 341.564 756.684 341.564C785.284 341.564 808.25 318.597 808.25 289.997C808.25 261.397 784.85 238.431 756.684 238.431Z" fill="#4C4C4C"/>
<path d="M567.75 479.364C567.75 479.364 412.617 488.031 336.35 483.697C332.017 483.264 332.017 479.797 332.017 475.464L332.45 467.664C332.45 467.664 324.217 469.831 320.75 481.097C319.017 487.164 317.717 501.897 318.15 510.997C318.584 516.631 322.484 521.397 328.117 522.264C353.25 526.597 437.75 536.997 550.417 522.697C550.417 522.264 565.15 497.564 567.75 479.364Z" fill="#332E2E"/>
<path d="M990.25 451.631C972.05 437.764 944.75 429.531 907.483 439.064C886.25 444.697 861.117 455.964 832.517 475.031C692.55 569.931 550.417 522.264 550.417 522.264C550.417 522.264 554.75 501.031 570.35 475.031C593.317 436.897 640.984 388.364 736.75 382.297C820.817 377.097 882.783 393.131 924.817 411.331C966.417 429.531 988.083 449.464 990.25 451.631Z" fill="white"/>
<path d="M570.35 475.031C593.317 436.897 640.984 388.364 736.75 382.297C820.817 377.097 882.784 393.131 924.817 411.331" stroke="#E8E7E6" stroke-width="13.4786" stroke-miterlimit="10" stroke-linecap="round" stroke-linejoin="round"/>
</g>
</svg>
